<?xml version="1.0" encoding="UTF-8"?>
<svg id="Layer_2" data-name="Layer 2" xmlns="http://www.w3.org/2000/svg" viewBox="0 0 1668.33 269.05">
  <defs>
    <style>
      .cls-1 {
        fill: #231f20;
      }

      .cls-2 {
        fill: #f6944e;
      }
    </style>
  </defs>
  <g id="Layer_1-2" data-name="Layer 1">
    <g>
      <rect class="cls-1" x="341.13" y="40.68" width="50.88" height="17.01"/>
      <rect class="cls-1" x="357.98" width="17.04" height="204.69"/>
      <polygon class="cls-1" points="185.66 114.28 185.66 131.29 337.37 131.29 336.94 114.28 185.66 114.28"/>
      <path class="cls-1" d="M315.33,155.32c-11.28,19.45-32.35,32.56-56.49,32.56-36.03,0-65.24-29.15-65.24-65.11s29.21-65.1,65.24-65.1,65.24,29.15,65.24,65.1c0,2.88-.21,5.72-.58,8.5h17.17c.28-2.79.44-5.63.44-8.5,0-45.34-36.85-82.1-82.28-82.1s-82.28,36.76-82.28,82.1,36.85,82.1,82.28,82.1c30.46,0,57.03-16.52,71.25-41.06l-14.75-8.5Z"/>
      <path class="cls-1" d="M556.54,122.78c0,45.34-36.85,82.1-82.28,82.1s-82.28-36.76-82.28-82.1,36.85-82.1,82.28-82.1,82.28,36.76,82.28,82.1ZM474.25,57.68c-36.03,0-65.24,29.15-65.24,65.1s29.21,65.1,65.24,65.1,65.24-29.15,65.24-65.1-29.21-65.1-65.24-65.1Z"/>
      <path class="cls-1" d="M650.8,204.88c-45.45,0-82.28-36.76-82.28-82.1s36.85-82.1,82.28-82.1,82.28,36.76,82.28,82.1-36.83,82.1-82.28,82.1ZM716.05,122.78c0-35.96-29.21-65.1-65.24-65.1s-65.24,29.15-65.24,65.1,29.21,65.1,65.24,65.1c36.03.01,65.24-29.14,65.24-65.1Z"/>
      <rect class="cls-1" x="568.51" y="49.18" width="17.04" height="196.38"/>
      <path class="cls-1" d="M774.41,122.78c0-45.34,36.85-82.1,82.28-82.1s82.28,36.76,82.28,82.1-36.85,82.1-82.28,82.1-82.28-36.76-82.28-82.1ZM856.69,187.89c36.03,0,65.24-29.15,65.24-65.1s-29.21-65.1-65.24-65.1-65.24,29.15-65.24,65.1,29.21,65.1,65.24,65.1Z"/>
      <rect class="cls-1" x="921.94" y="49.17" width="17.04" height="155.5"/>
      <polygon class="cls-2" points="762.33 49.18 786.94 24.61 762.33 .06 762.33 49.18"/>
      <polygon class="cls-1" points="745.29 204.69 762.33 204.69 762.33 49.18 745.29 66.03 745.29 204.69"/>
      <path class="cls-1" d="M164.58,122.78c0,45.34-36.85,82.1-82.28,82.1S.01,168.12.01,122.78,36.86,40.67,82.3,40.67s82.28,36.76,82.28,82.1ZM82.28,57.68c-36.03,0-65.24,29.15-65.24,65.1s29.21,65.1,65.24,65.1,65.24-29.15,65.24-65.1-29.21-65.1-65.24-65.1Z"/>
      <rect class="cls-1" width="17.04" height="204.69"/>
      <path class="cls-1" d="M1187.92,75.86c-1.66-3.04-3.59-5.93-5.77-8.66-6.79-8.48-15.11-14.99-24.96-19.51-9.85-4.52-20.54-6.79-32.09-6.79-14.71,0-28.01,3.62-39.89,10.87-11.88,7.24-21.22,17.08-28.01,29.54-6.79,12.44-10.19,26.47-10.19,42.1s3.4,29.6,10.19,41.92c6.79,12.35,16.07,22.14,27.85,29.37,11.76,7.25,25.12,10.87,40.05,10.87,11.77,0,22.58-2.39,32.43-7.13,9.85-4.76,18.05-11.37,24.61-19.87,2.16-2.8,4.09-5.77,5.77-8.9,3.4-6.3,5.77-13.24,7.13-20.8v-51.6c-1.23-7.84-3.6-14.98-7.13-21.4ZM1181.3,157.69c-5.1,9.96-12.23,17.78-21.4,23.43-9.16,5.66-19.75,8.5-31.75,8.5s-23.15-2.83-32.76-8.5c-9.62-5.65-17.14-13.52-22.58-23.59-5.43-10.07-8.14-21.44-8.14-34.12s2.71-24.67,8.14-34.64c5.44-9.95,12.84-17.76,22.24-23.43,9.39-5.65,20.08-8.48,32.09-8.48s22.97,2.83,32.25,8.48c9.28,5.66,16.52,13.48,21.72,23.43,5.2,9.96,7.81,21.52,7.81,34.64s-2.55,24.33-7.64,34.28ZM1187.92.43v82.56l4.42,38.02-4.42,39.06v42.1h16.98V.43h-16.98Z"/>
      <path class="cls-1" d="M1310.82,205.56c-15.17,0-28.81-3.62-40.91-10.86-12.11-7.24-21.68-17.03-28.69-29.37-7.02-12.33-10.52-26.2-10.52-41.59s3.51-29.65,10.52-42.1c7.01-12.44,16.52-22.35,28.52-29.71,11.99-7.35,25.46-11.03,40.4-11.03,12.22,0,23.14,2.32,32.76,6.96,9.62,4.64,17.54,11.2,23.77,19.69,6.22,8.49,10.36,18.39,12.39,29.71v51.61c-2.04,11.54-6.23,21.56-12.56,30.05-6.34,8.49-14.21,15.06-23.6,19.69-9.39,4.64-20.09,6.96-32.08,6.96ZM1313.2,189.6c18.11,0,32.59-6.05,43.46-18.16,10.86-12.11,16.3-28.12,16.3-48.04,0-13.35-2.49-25.01-7.47-34.97-4.98-9.96-12-17.71-21.05-23.26-9.05-5.54-19.58-8.32-31.57-8.32s-23.54,2.89-33.27,8.66c-9.73,5.77-17.37,13.64-22.92,23.6-5.55,9.96-8.32,21.39-8.32,34.29s2.77,23.99,8.32,33.95c5.54,9.96,13.24,17.82,23.09,23.6,9.85,5.77,20.99,8.66,33.44,8.66ZM1371.93,202.17v-42.1l4.07-39.04-4.07-38.03v-38.7h16.98v157.87h-16.98Z"/>
      <path class="cls-1" d="M1425.24,44.3v157.87h16.98V44.3h-16.98Z"/>
      <path class="cls-1" d="M1478.21.43v201.74h16.98V.43h-16.98Z"/>
      <path class="cls-1" d="M1585.15,202.5l-70.28-158.21h18.67l60.77,140.56h-8.83l64.17-140.56h18.67l-74.35,158.21h-8.83ZM1544.07,269.05l40.74-83.18,9.17,16.64-31.24,66.55h-18.67Z"/>
      <path class="cls-1" d="M1447.89,14.81c0,2.42-.58,4.66-1.75,6.73-.56,1.02-1.29,2.02-2.15,2.95-.39.42-.77.79-1.19,1.14-2.42,2.08-5.35,3.1-8.84,3.1-3.1,0-5.81-1.02-8.16-3.1-.4-.36-.79-.73-1.17-1.14-.87-.93-1.59-1.93-2.16-2.95-1.17-2.08-1.75-4.32-1.75-6.73,0-4.08,1.3-7.35,3.91-9.85.62-.59,1.28-1.13,1.96-1.57,2.16-1.44,4.61-2.17,7.37-2.17,3.1,0,5.77.73,8.02,2.17.71.44,1.38.98,2,1.57,2.59,2.49,3.9,5.77,3.9,9.85Z"/>
    </g>
  </g>
</svg>