<?xml version="1.0" encoding="UTF-8"?>
<svg id="Layer_2" data-name="Layer 2" xmlns="http://www.w3.org/2000/svg" viewBox="0 0 1449.6 233.78">
  <defs>
    <style>
      .cls-1 {
        fill: #fff;
      }

      .cls-2 {
        fill: #f6944e;
      }
    </style>
  </defs>
  <g id="Layer_1-2" data-name="Layer 1">
    <g>
      <rect class="cls-1" x="296.4" y="35.35" width="44.21" height="14.78"/>
      <rect class="cls-1" x="311.05" width="14.8" height="177.85"/>
      <polygon class="cls-1" points="161.32 99.3 161.32 114.07 293.14 114.07 292.76 99.3 161.32 99.3"/>
      <path class="cls-1" d="M273.99,134.96c-9.8,16.9-28.11,28.29-49.09,28.29-31.31,0-56.69-25.33-56.69-56.57s25.38-56.56,56.69-56.56,56.69,25.33,56.69,56.56c0,2.5-.18,4.97-.5,7.38h14.92c.24-2.42.39-4.9.39-7.38,0-39.4-32.02-71.34-71.49-71.34s-71.49,31.94-71.49,71.34,32.02,71.34,71.49,71.34c26.46,0,49.55-14.35,61.91-35.68l-12.82-7.38Z"/>
      <path class="cls-1" d="M483.57,106.68c0,39.4-32.02,71.34-71.49,71.34s-71.49-31.94-71.49-71.34,32.02-71.34,71.49-71.34,71.49,31.94,71.49,71.34ZM412.07,50.12c-31.31,0-56.69,25.33-56.69,56.56s25.38,56.56,56.69,56.56,56.69-25.33,56.69-56.56-25.38-56.56-56.69-56.56Z"/>
      <path class="cls-1" d="M565.48,178.02c-39.49,0-71.49-31.94-71.49-71.34s32.02-71.34,71.49-71.34,71.49,31.94,71.49,71.34-32,71.34-71.49,71.34ZM622.17,106.68c0-31.24-25.38-56.56-56.69-56.56s-56.69,25.33-56.69,56.56,25.38,56.56,56.69,56.56c31.31.01,56.69-25.32,56.69-56.56Z"/>
      <rect class="cls-1" x="493.97" y="42.74" width="14.8" height="170.64"/>
      <path class="cls-1" d="M672.88,106.68c0-39.4,32.02-71.34,71.49-71.34s71.49,31.94,71.49,71.34-32.02,71.34-71.49,71.34-71.49-31.94-71.49-71.34ZM744.37,163.25c31.31,0,56.69-25.33,56.69-56.56s-25.38-56.56-56.69-56.56-56.69,25.33-56.69,56.56,25.38,56.56,56.69,56.56Z"/>
      <rect class="cls-1" x="801.07" y="42.72" width="14.8" height="135.11"/>
      <polygon class="cls-2" points="662.38 42.74 683.77 21.39 662.38 .05 662.38 42.74"/>
      <polygon class="cls-1" points="647.58 177.85 662.38 177.85 662.38 42.74 647.58 57.37 647.58 177.85"/>
      <path class="cls-1" d="M143,106.68c0,39.4-32.02,71.34-71.49,71.34S.01,146.08.01,106.68,32.03,35.34,71.51,35.34s71.49,31.94,71.49,71.34ZM71.49,50.12c-31.31,0-56.69,25.33-56.69,56.56s25.38,56.56,56.69,56.56,56.69-25.33,56.69-56.56-25.38-56.56-56.69-56.56Z"/>
      <rect class="cls-1" width="14.8" height="177.85"/>
      <path class="cls-1" d="M1032.17,65.92c-1.44-2.64-3.12-5.15-5.01-7.52-5.9-7.37-13.13-13.03-21.68-16.96-8.56-3.93-17.84-5.9-27.88-5.9-12.78,0-24.34,3.14-34.66,9.44-10.32,6.29-18.44,14.84-24.34,25.66-5.9,10.81-8.85,23-8.85,36.58s2.95,25.72,8.85,36.42c5.9,10.73,13.97,19.24,24.2,25.52,10.22,6.3,21.83,9.44,34.8,9.44,10.23,0,19.62-2.07,28.18-6.2,8.56-4.14,15.68-9.88,21.39-17.26,1.88-2.44,3.56-5.01,5.01-7.73,2.95-5.48,5.01-11.51,6.2-18.08v-44.84c-1.07-6.82-3.13-13.01-6.2-18.59ZM1026.42,137.01c-4.43,8.66-10.63,15.45-18.59,20.36-7.96,4.92-17.16,7.38-27.58,7.38s-20.11-2.46-28.46-7.38c-8.36-4.91-14.89-11.75-19.62-20.5-4.72-8.75-7.07-18.63-7.07-29.65s2.36-21.44,7.07-30.1c4.73-8.65,11.16-15.43,19.33-20.36,8.16-4.91,17.44-7.37,27.88-7.37s19.96,2.46,28.02,7.37c8.07,4.92,14.35,11.71,18.87,20.36,4.52,8.66,6.79,18.69,6.79,30.1s-2.22,21.14-6.64,29.79ZM1032.17.38v71.74l3.84,33.03-3.84,33.94v36.58h14.75V.38h-14.75Z"/>
      <path class="cls-1" d="M1138.96,178.61c-13.18,0-25.03-3.14-35.55-9.44-10.52-6.29-18.83-14.8-24.93-25.52-6.1-10.72-9.14-22.76-9.14-36.14s3.05-25.76,9.14-36.58c6.09-10.81,14.35-19.42,24.78-25.81,10.42-6.39,22.12-9.59,35.11-9.59,10.62,0,20.11,2.02,28.47,6.05,8.36,4.03,15.24,9.73,20.65,17.11,5.41,7.38,9,15.98,10.77,25.81v44.84c-1.77,10.03-5.41,18.73-10.91,26.11-5.51,7.38-12.34,13.08-20.5,17.11-8.16,4.03-17.46,6.05-27.88,6.05ZM1141.03,164.75c15.73,0,28.32-5.26,37.76-15.78,9.44-10.52,14.16-24.43,14.16-41.74,0-11.6-2.17-21.73-6.49-30.38-4.33-8.65-10.43-15.39-18.29-20.21-7.87-4.82-17.01-7.23-27.44-7.23s-20.46,2.51-28.91,7.52c-8.46,5.01-15.1,11.85-19.91,20.5-4.82,8.66-7.23,18.58-7.23,29.79s2.41,20.85,7.23,29.5c4.82,8.66,11.51,15.49,20.06,20.5,8.56,5.02,18.24,7.52,29.06,7.52ZM1192.06,175.66v-36.58l3.54-33.92-3.54-33.04v-33.63h14.75v137.17h-14.75Z"/>
      <path class="cls-1" d="M1238.38,38.49v137.18h14.75V38.49h-14.75Z"/>
      <path class="cls-1" d="M1284.4.38v175.29h14.75V.38h-14.75Z"/>
      <path class="cls-1" d="M1377.32,175.95l-61.07-137.47h16.23l52.8,122.13h-7.67l55.75-122.13h16.23l-64.6,137.47h-7.67ZM1341.63,233.78l35.4-72.27,7.97,14.45-27.14,57.82h-16.22Z"/>
      <path class="cls-1" d="M1258.06,12.87c0,2.1-.5,4.05-1.52,5.85-.49.89-1.12,1.75-1.87,2.56-.33.36-.67.68-1.03.99-2.1,1.8-4.65,2.69-7.68,2.69-2.69,0-5.05-.89-7.09-2.69-.35-.31-.68-.63-1.02-.99-.76-.81-1.38-1.67-1.88-2.56-1.02-1.8-1.52-3.75-1.52-5.85,0-3.54,1.13-6.39,3.4-8.55.54-.52,1.11-.98,1.7-1.37,1.88-1.25,4.01-1.88,6.4-1.88,2.69,0,5.01.63,6.97,1.88.62.39,1.2.85,1.74,1.37,2.25,2.16,3.39,5.01,3.39,8.55Z"/>
    </g>
  </g>
</svg>