<?xml version="1.0" encoding="UTF-8"?>
<svg id="Layer_2" data-name="Layer 2" xmlns="http://www.w3.org/2000/svg" viewBox="0 0 1582.48 1534.07">
  <defs>
    <style>
      .cls-1 {
        fill: #231f20;
      }

      .cls-2 {
        fill: #f6944e;
      }
    </style>
  </defs>
  <g id="Layer_1-2" data-name="Layer 1">
    <g>
      <polygon class="cls-2" points="1044.98 1075.5 1176.35 843.46 944.1 712.62 1044.98 1075.5"/>
      <path class="cls-1" d="M1568.88,756.86c-65.33-282.16-346.97-457.96-629.13-392.68-117.91,27.28-217.29,92.35-288.2,179.45l-109.06-471.34c-.31-1.56-.73-3.07-1.2-4.63-.83-3.07-1.87-6.04-3.02-8.9-1.2-2.97-2.5-5.78-3.85-8.48-4.27-8.17-9.68-15.57-15.93-22.02-2.13-2.14-4.32-4.22-6.61-6.14-3.44-2.86-7.08-5.52-10.83-7.91-20.25-12.65-45.39-17.6-70.49-11.76l-106.72,24.67-251.6,58.25C22.06,96.97-9.22,147.1,2.44,197.28c5.78,25.14,21.24,45.45,41.49,58.15,20.25,12.65,45.29,17.54,70.38,11.77l251.6-58.2,177.52,767.08,7.91,34.25c.1.36.16.63.26.88,31.6,117.81,101.36,215.89,192.72,284.03,23.22-31.91,57.58-55.91,99.07-65.49,91.62-21.19,183.04,35.87,204.28,127.49,3.23,14.21,4.63,28.37,4.32,42.27,40.87.42,82.51-3.96,124.16-13.59,9.53-2.19,18.9-4.63,28.16-7.34-1.51-4.68-2.81-9.47-3.96-14.37-8.59-37.17-4.32-74.29,10-106.77,20.82-47.53,63.04-84.91,117.5-97.51,53.46-12.39,106.88,1.88,146.28,34.15,91.88-119.99,131.45-278.56,94.75-437.24ZM607.1,607.3c5.62-9.53,11.61-18.9,17.91-28.01-6.25,9.11-12.23,18.48-17.91,28.01ZM1137.05,1216.8c-182.83,42.32-365.4-66.69-416.36-245.14-1.56-5.73-3.12-11.61-4.48-17.49-2.97-12.91-5.21-25.77-6.72-38.63-.26-2.39-.52-4.79-.73-7.13-.31-2.6-.52-5.21-.68-7.81-.16-1.72-.26-3.54-.36-5.26-.05-1.46-.16-2.86-.16-4.32-.16-.88-.21-1.77-.16-2.71-.16-2.14-.16-4.43-.21-6.61-.05-.73-.05-1.46,0-2.14-.1-2.08-.05-4.11-.05-6.19,0-1.2-.05-2.34,0-3.59.05-1.98.1-3.9.1-5.83.05-.78.1-1.51.1-2.24.05-2.14.21-4.27.31-6.41.1-2.6.31-5.1.57-7.65.1-2.34.31-4.74.57-7.13v-.16c.26-2.29.47-4.63.83-6.92.05-1.3.26-2.71.47-4.06.1-1.2.26-2.34.52-3.64.16-1.46.36-3.02.68-4.58.21-1.56.47-3.18.78-4.74.1-1.04.31-2.08.57-3.17,24-133.9,125.25-247.23,266.23-279.81,188.71-43.73,377.11,73.87,420.79,262.58,43.62,188.76-73.87,377.11-262.63,420.79Z"/>
      <path class="cls-2" d="M1399.34,1461.55c-59.12,13.68-118.21-13.94-146.99-64.01-6.47-11.15-11.35-23.52-14.41-36.7-16.74-72.37,28.35-144.59,100.72-161.34,51.77-11.99,103.52,7.7,134.86,46.41,12.51,15.33,21.78,33.7,26.53,54.3,16.74,72.37-28.35,144.59-100.72,161.34Z"/>
      <path class="cls-2" d="M912.14,1530.58c-59.12,13.68-118.21-13.94-146.99-64.01-6.47-11.15-11.35-23.52-14.41-36.7-16.74-72.37,28.35-144.59,100.72-161.34,51.77-11.99,103.52,7.7,134.86,46.41,12.51,15.33,21.78,33.7,26.53,54.3,16.74,72.37-28.35,144.59-100.72,161.34Z"/>
    </g>
  </g>
</svg>