<?xml version="1.0" encoding="UTF-8"?>
<svg id="Layer_2" data-name="Layer 2" xmlns="http://www.w3.org/2000/svg" viewBox="0 0 1389.17 1346.49">
  <defs>
    <style>
      .cls-1 {
        fill: #f6944e;
      }
    </style>
  </defs>
  <g id="Layer_1-2" data-name="Layer 1">
    <g>
      <path class="cls-1" d="M475.56,857.99c.98,5.1,2.05,10.2,3.22,15.29,1.16,5.07,2.4,10.09,3.71,15.09l-6.93-30.38ZM619.74,771.87c-.02-3.73.04-7.46.16-11.17-.12,3.71-.17,7.44-.16,11.17ZM620,783.11c-.16-3.75-.24-7.5-.26-11.23.02,3.73.1,7.48.26,11.23ZM620.34,751.2c.3-4.76.72-9.5,1.23-14.21-.53,4.71-.94,9.45-1.23,14.21ZM620.84,796.53c.22,2.59.47,5.18.76,7.77-.28-2.6-.53-5.18-.76-7.77ZM620.84,796.53c.22,2.59.47,5.18.76,7.77-.28-2.6-.53-5.18-.76-7.77ZM620.34,751.2c.3-4.76.72-9.5,1.23-14.21-.53,4.71-.94,9.45-1.23,14.21ZM619.74,771.87c-.02-3.73.04-7.46.16-11.17-.12,3.71-.17,7.44-.16,11.17ZM620,783.11c-.16-3.75-.24-7.5-.26-11.23.02,3.73.1,7.48.26,11.23Z"/>
      <path class="cls-1" d="M1377.51,668.1c-56.66-248.18-303.8-403.39-551.98-346.73-103.71,23.68-191.19,80.61-253.76,156.97L477.13,63.79c-5.04-22.07-18.56-39.99-36.33-51.21-17.75-11.17-39.83-15.54-61.9-10.51l-93.86,21.43L63.73,74.03C19.58,84.11-8,128.1,2.08,172.25c5.04,22.07,18.56,39.98,36.33,51.21,17.75,11.15,39.76,15.55,61.84,10.52l221.31-50.52,154,674.53,6.93,30.38c.06.24.13.48.2.72,24.97,94.19,77.68,174.19,147.26,233.13,18.05-27.51,46.34-48.35,80.95-56.25,71.04-16.22,141.77,28.22,157.98,99.26,4.89,21.39,4.26,42.75-.93,62.61,52.82,6.96,107.78,4.82,162.77-7.74,6.03-1.38,11.99-2.86,17.9-4.46-11.1-68.16,32.61-134.1,100.87-149.67,40.23-9.18,80.37,1.08,110.56,24.65,104.12-108.23,153.39-265.16,117.46-422.51ZM996.74,1071.28c-162.62,37.13-324.63-61.8-366.76-221.97-.3-1.11-.58-2.21-.85-3.32-.28-1.1-.55-2.21-.81-3.32-.27-1.12-.53-2.23-.78-3.35-.99-4.33-1.89-8.65-2.68-12.98-.49-2.68-.95-5.36-1.38-8.04-.25-1.65-.5-3.28-.73-4.93-.39-2.7-.73-5.41-1.03-8.11-.04-.32-.07-.65-.11-.97-.29-2.59-.54-5.18-.76-7.77-.02-.24-.04-.48-.05-.72-.09-1.06-.18-2.13-.25-3.18-.16-2.12-.29-4.22-.4-6.33-.05-1.07-.1-2.14-.15-3.2-.31-7.51-.34-14.97-.1-22.4.03-1.12.07-2.24.13-3.37.03-1.09.09-2.19.16-3.27.05-.96.1-1.91.17-2.86.29-4.76.7-9.5,1.23-14.21.21-1.89.43-3.77.68-5.65.11-.94.24-1.89.38-2.83.02-.19.05-.36.07-.55.14-.99.28-1.98.44-2.96.01-.06.01-.13.03-.19.13-.84.25-1.69.4-2.53.15-.94.3-1.89.46-2.83.16-.91.31-1.82.48-2.73.04-.25.08-.5.13-.74.21-1.13.42-2.24.64-3.37,22.4-116.39,111.29-214.37,234.24-242.44,166.03-37.91,331.3,65.93,369.19,231.89,37.91,166.03-65.92,331.3-231.95,369.21Z"/>
      <path class="cls-1" d="M482.69,889.09h-.03s-.17-.72-.17-.72c.06.24.13.48.2.72Z"/>
      <path class="cls-1" d="M1229.28,1343.3c-67.79,15.48-135.29-26.93-150.75-94.72-.61-2.65-1.11-5.29-1.54-7.93-10.59-65.04,31.12-127.96,96.26-142.83,38.39-8.76,76.69,1.03,105.5,23.52,22.06,17.19,38.54,41.81,45.25,71.2,15.48,67.78-26.93,135.28-94.72,150.75Z"/>
      <path class="cls-1" d="M847.49,1251.56c-11.25,43.09-45.52,78.57-91.94,89.18-66.41,15.17-132.55-26.39-147.72-92.81-7.78-34.06-.64-68.04,17.12-95.12,16.87-25.72,43.33-45.21,75.69-52.6,66.42-15.17,132.56,26.39,147.72,92.81,4.57,20,3.99,39.98-.87,58.55Z"/>
    </g>
  </g>
</svg>