<?xml version="1.0" encoding="UTF-8"?>
<svg id="Layer_2" data-name="Layer 2" xmlns="http://www.w3.org/2000/svg" viewBox="0 0 1910.31 307.41">
  <defs>
    <style>
      .cls-1 {
        fill: #231f20;
      }

      .cls-2 {
        fill: #f6944e;
      }
    </style>
  </defs>
  <g id="Layer_1-2" data-name="Layer 1">
    <g>
      <rect class="cls-1" x="477.26" y="60.82" width="54.93" height="18.36"/>
      <rect class="cls-1" x="495.45" y="16.9" width="18.4" height="221.01"/>
      <polygon class="cls-1" points="309.39 140.29 309.39 158.66 473.2 158.66 472.73 140.29 309.39 140.29"/>
      <path class="cls-1" d="M449.41,184.61c-12.18,21.01-34.94,35.16-61,35.16-38.91,0-70.45-31.48-70.45-70.3s31.54-70.29,70.45-70.29,70.45,31.48,70.45,70.29c0,3.11-.22,6.18-.62,9.17h18.54c.3-3.01.48-6.08.48-9.17,0-48.96-39.79-88.65-88.84-88.65s-88.84,39.69-88.84,88.65,39.79,88.65,88.84,88.65c32.89,0,61.58-17.84,76.93-44.33l-15.93-9.17Z"/>
      <path class="cls-1" d="M709.85,149.47c0,48.96-39.79,88.65-88.84,88.65s-88.84-39.69-88.84-88.65,39.79-88.65,88.84-88.65,88.84,39.69,88.84,88.65ZM620.99,79.18c-38.91,0-70.45,31.48-70.45,70.29s31.54,70.29,70.45,70.29,70.45-31.48,70.45-70.29-31.54-70.29-70.45-70.29Z"/>
      <path class="cls-1" d="M811.63,238.12c-49.07,0-88.84-39.69-88.84-88.65s39.79-88.65,88.84-88.65,88.84,39.69,88.84,88.65-39.77,88.65-88.84,88.65ZM882.08,149.47c0-38.83-31.54-70.29-70.45-70.29s-70.45,31.48-70.45,70.29,31.54,70.29,70.45,70.29c38.91.02,70.45-31.46,70.45-70.29Z"/>
      <rect class="cls-1" x="722.77" y="70" width="18.4" height="212.05"/>
      <path class="cls-1" d="M945.1,149.47c0-48.96,39.79-88.65,88.84-88.65s88.84,39.69,88.84,88.65-39.79,88.65-88.84,88.65-88.84-39.69-88.84-88.65ZM1033.94,219.77c38.91,0,70.45-31.48,70.45-70.29s-31.54-70.29-70.45-70.29-70.45,31.48-70.45,70.29,31.54,70.29,70.45,70.29Z"/>
      <rect class="cls-1" x="1104.4" y="69.99" width="18.4" height="167.9"/>
      <polygon class="cls-2" points="932.05 70 958.63 43.48 932.05 16.96 932.05 70"/>
      <polygon class="cls-1" points="913.65 237.91 932.05 237.91 932.05 70 913.65 88.19 913.65 237.91"/>
      <path class="cls-1" d="M1391.58,98.81c-1.79-3.28-3.87-6.4-6.23-9.35-7.33-9.16-16.31-16.19-26.95-21.07-10.63-4.88-22.18-7.33-34.65-7.33-15.88,0-30.24,3.91-43.07,11.74-12.82,7.81-22.91,18.44-30.24,31.89-7.33,13.43-11,28.58-11,45.45s3.67,31.96,11,45.26c7.33,13.34,17.36,23.9,30.07,31.72,12.7,7.83,27.12,11.74,43.24,11.74,12.71,0,24.39-2.58,35.02-7.7,10.63-5.14,19.48-12.28,26.58-21.45,2.34-3.03,4.42-6.23,6.23-9.61,3.67-6.8,6.23-14.3,7.7-22.46v-55.72c-1.33-8.47-3.89-16.17-7.7-23.1ZM1384.44,187.16c-5.51,10.76-13.21,19.2-23.1,25.3-9.89,6.12-21.33,9.17-34.28,9.17s-24.99-3.06-35.37-9.17c-10.39-6.1-18.51-14.6-24.38-25.47-5.86-10.87-8.79-23.15-8.79-36.84s2.93-26.64,8.79-37.4c5.88-10.74,13.87-19.18,24.02-25.3,10.13-6.1,21.68-9.16,34.65-9.16s24.8,3.06,34.82,9.16c10.02,6.12,17.84,14.55,23.46,25.3,5.62,10.76,8.44,23.23,8.44,37.4s-2.75,26.27-8.25,37.02ZM1391.58,17.37v89.15l4.77,41.05-4.77,42.17v45.45h18.33V17.37h-18.33Z"/>
      <path class="cls-1" d="M1524.29,238.85c-16.38,0-31.1-3.91-44.17-11.73-13.08-7.82-23.4-18.39-30.98-31.71-7.58-13.32-11.36-28.28-11.36-44.91s3.79-32.01,11.36-45.46c7.57-13.44,17.84-24.13,30.79-32.08,12.95-7.94,27.49-11.91,43.62-11.91,13.2,0,24.99,2.51,35.38,7.52,10.39,5.01,18.94,12.1,25.66,21.26,6.72,9.17,11.18,19.86,13.38,32.08v55.72c-2.2,12.46-6.72,23.28-13.56,32.44-6.85,9.17-15.34,16.26-25.48,21.26-10.14,5.01-21.69,7.52-34.64,7.52ZM1526.86,221.62c19.55,0,35.19-6.54,46.92-19.61,11.73-13.07,17.6-30.36,17.6-51.87,0-14.42-2.69-27-8.06-37.76-5.38-10.75-12.96-19.12-22.73-25.11-9.78-5.99-21.14-8.98-34.09-8.98s-25.42,3.12-35.93,9.35c-10.51,6.23-18.76,14.73-24.74,25.48-5.99,10.76-8.98,23.1-8.98,37.02s2.99,25.91,8.98,36.66c5.99,10.76,14.3,19.25,24.93,25.48,10.63,6.23,22.67,9.35,36.11,9.35ZM1590.28,235.19v-45.46l4.4-42.16-4.4-41.06v-41.79h18.33v170.46h-18.33Z"/>
      <path class="cls-1" d="M1647.84,64.73v170.47h18.33V64.73h-18.33Z"/>
      <path class="cls-1" d="M1705.03,17.37v217.83h18.33V17.37h-18.33Z"/>
      <path class="cls-1" d="M1820.5,235.55l-75.89-170.83h20.16l65.62,151.77h-9.53l69.29-151.77h20.16l-80.28,170.83h-9.53ZM1776.14,307.41l43.99-89.82,9.9,17.96-33.73,71.85h-20.16Z"/>
      <path class="cls-1" d="M1672.29,32.89c0,2.61-.62,5.03-1.89,7.27-.61,1.1-1.39,2.18-2.32,3.19-.42.45-.83.85-1.28,1.23-2.61,2.24-5.78,3.35-9.54,3.35-3.35,0-6.28-1.1-8.81-3.35-.43-.38-.85-.78-1.26-1.23-.94-1.01-1.71-2.08-2.34-3.19-1.26-2.24-1.89-4.66-1.89-7.27,0-4.4,1.41-7.94,4.23-10.63.67-.64,1.38-1.22,2.11-1.7,2.34-1.55,4.98-2.34,7.96-2.34,3.35,0,6.23.78,8.66,2.34.77.48,1.49,1.06,2.16,1.7,2.8,2.69,4.21,6.23,4.21,10.63Z"/>
      <g>
        <path class="cls-2" d="M92.87,167.56c.19,1,.4,1.99.63,2.99.23.99.47,1.97.72,2.95l-1.35-5.93ZM121.03,150.74c0-.73,0-1.46.03-2.18-.02.72-.03,1.45-.03,2.18ZM121.08,152.93c-.03-.73-.05-1.46-.05-2.19,0,.73.02,1.46.05,2.19ZM121.15,146.7c.06-.93.14-1.85.24-2.77-.1.92-.18,1.84-.24,2.77ZM121.24,155.55c.04.5.09,1.01.15,1.52-.05-.51-.1-1.01-.15-1.52ZM121.24,155.55c.04.5.09,1.01.15,1.52-.05-.51-.1-1.01-.15-1.52ZM121.15,146.7c.06-.93.14-1.85.24-2.77-.1.92-.18,1.84-.24,2.77ZM121.03,150.74c0-.73,0-1.46.03-2.18-.02.72-.03,1.45-.03,2.18ZM121.08,152.93c-.03-.73-.05-1.46-.05-2.19,0,.73.02,1.46.05,2.19Z"/>
        <path class="cls-2" d="M269.01,130.47c-11.07-48.47-59.33-78.78-107.8-67.71-20.25,4.62-37.34,15.74-49.56,30.65L93.18,12.46c-.98-4.31-3.62-7.81-7.1-10-3.47-2.18-7.78-3.04-12.09-2.05l-18.33,4.19L12.45,14.46C3.82,16.43-1.56,25.02.41,33.64c.98,4.31,3.62,7.81,7.1,10,3.47,2.18,7.76,3.04,12.08,2.05l43.22-9.87,30.07,131.73,1.35,5.93s.02.09.04.14c4.88,18.39,15.17,34.02,28.76,45.53,3.52-5.37,9.05-9.44,15.81-10.99,13.87-3.17,27.69,5.51,30.85,19.38.95,4.18.83,8.35-.18,12.23,10.32,1.36,21.05.94,31.79-1.51,1.18-.27,2.34-.56,3.5-.87-2.17-13.31,6.37-26.19,19.7-29.23,7.86-1.79,15.69.21,21.59,4.81,20.33-21.14,29.95-51.78,22.94-82.51ZM194.65,209.21c-31.76,7.25-63.4-12.07-71.62-43.35-.06-.22-.11-.43-.17-.65-.05-.22-.11-.43-.16-.65-.05-.22-.1-.44-.15-.65-.19-.84-.37-1.69-.52-2.53-.1-.52-.19-1.05-.27-1.57-.05-.32-.1-.64-.14-.96-.08-.53-.14-1.06-.2-1.58,0-.06-.01-.13-.02-.19-.06-.5-.11-1.01-.15-1.52,0-.05,0-.09-.01-.14-.02-.21-.03-.42-.05-.62-.03-.41-.06-.82-.08-1.24-.01-.21-.02-.42-.03-.62-.06-1.47-.07-2.92-.02-4.38,0-.22.01-.44.02-.66,0-.21.02-.43.03-.64.01-.19.02-.37.03-.56.06-.93.14-1.85.24-2.77.04-.37.08-.74.13-1.1.02-.18.05-.37.07-.55,0-.04.01-.07.01-.11.03-.19.05-.39.09-.58,0-.01,0-.02,0-.04.02-.16.05-.33.08-.49.03-.18.06-.37.09-.55.03-.18.06-.36.09-.53,0-.05.02-.1.02-.14.04-.22.08-.44.12-.66,4.38-22.73,21.73-41.86,45.74-47.35,32.42-7.4,64.7,12.88,72.1,45.28,7.4,32.42-12.87,64.7-45.3,72.1Z"/>
        <path class="cls-2" d="M94.26,173.63h0s-.03-.14-.03-.14c.01.05.02.09.04.14Z"/>
        <path class="cls-2" d="M240.06,262.33c-13.24,3.02-26.42-5.26-29.44-18.5-.12-.52-.22-1.03-.3-1.55-2.07-12.7,6.08-24.99,18.8-27.89,7.5-1.71,14.98.2,20.6,4.59,4.31,3.36,7.53,8.17,8.84,13.9,3.02,13.24-5.26,26.42-18.5,29.44Z"/>
        <path class="cls-2" d="M165.51,244.42c-2.2,8.41-8.89,15.34-17.96,17.41-12.97,2.96-25.89-5.15-28.85-18.12-1.52-6.65-.13-13.29,3.34-18.58,3.3-5.02,8.46-8.83,14.78-10.27,12.97-2.96,25.89,5.15,28.85,18.12.89,3.91.78,7.81-.17,11.43Z"/>
      </g>
    </g>
  </g>
</svg>