<?xml version="1.0" encoding="UTF-8"?>
<svg id="Layer_2" data-name="Layer 2" xmlns="http://www.w3.org/2000/svg" viewBox="0 0 1882.45 302.68">
  <defs>
    <style>
      .cls-1 {
        fill: #231f20;
      }

      .cls-2 {
        fill: #f6944e;
      }
    </style>
  </defs>
  <g id="Layer_1-2" data-name="Layer 1">
    <g>
      <path class="cls-2" d="M91.9,195.08c.01.06.03.11.05.17h0s-.04-.17-.04-.17Z"/>
      <path class="cls-2" d="M84.32,5.25c.44.37.86.77,1.26,1.18-.4-.42-.83-.81-1.26-1.18Z"/>
      <path class="cls-2" d="M106.04,112.27c-1.2,1.76-2.35,3.55-3.44,5.39,1.08-1.83,2.23-3.63,3.44-5.39Z"/>
      <path class="cls-2" d="M88.64,10.66c.27.53.52,1.06.74,1.63-.23-.56-.47-1.1-.74-1.63Z"/>
      <path class="cls-2" d="M89.97,14c-.16-.59-.36-1.16-.58-1.72.23.56.42,1.13.58,1.72Z"/>
      <g>
        <polygon class="cls-2" points="200.73 206.59 225.97 162.02 181.35 136.89 200.73 206.59"/>
        <path class="cls-1" d="M301.37,145.39c-12.55-54.2-66.65-87.97-120.85-75.43-22.65,5.24-41.74,17.74-55.36,34.47L104.21,13.89c-.06-.3-.14-.59-.23-.89-.16-.59-.36-1.16-.58-1.71-.23-.57-.48-1.11-.74-1.63-.82-1.57-1.86-2.99-3.06-4.23-.41-.41-.83-.81-1.27-1.18-.66-.55-1.36-1.06-2.08-1.52-3.89-2.43-8.72-3.38-13.54-2.26l-20.5,4.74L13.88,16.4C4.24,18.63-1.77,28.26.47,37.9c1.11,4.83,4.08,8.73,7.97,11.17,3.89,2.43,8.7,3.37,13.52,2.26l48.33-11.18,34.1,147.35,1.52,6.58c.02.07.03.12.05.17,6.07,22.63,19.47,41.47,37.02,54.56,4.46-6.13,11.06-10.74,19.03-12.58,17.6-4.07,35.16,6.89,39.24,24.49.62,2.73.89,5.45.83,8.12,7.85.08,15.85-.76,23.85-2.61,1.83-.42,3.63-.89,5.41-1.41-.29-.9-.54-1.82-.76-2.76-1.65-7.14-.83-14.27,1.92-20.51,4-9.13,12.11-16.31,22.57-18.73,10.27-2.38,20.53.36,28.1,6.56,17.65-23.05,25.25-53.51,18.2-83.99ZM116.62,116.66c1.08-1.83,2.23-3.63,3.44-5.38-1.2,1.75-2.35,3.55-3.44,5.38ZM218.42,233.74c-35.12,8.13-70.19-12.81-79.98-47.09-.3-1.1-.6-2.23-.86-3.36-.57-2.48-1-4.95-1.29-7.42-.05-.46-.1-.92-.14-1.37-.06-.5-.1-1-.13-1.5-.03-.33-.05-.68-.07-1.01-.01-.28-.03-.55-.03-.83-.03-.17-.04-.34-.03-.52-.03-.41-.03-.85-.04-1.27-.01-.14-.01-.28,0-.41-.02-.4-.01-.79-.01-1.19,0-.23-.01-.45,0-.69.01-.38.02-.75.02-1.12.01-.15.02-.29.02-.43.01-.41.04-.82.06-1.23.02-.5.06-.98.11-1.47.02-.45.06-.91.11-1.37v-.03c.05-.44.09-.89.16-1.33.01-.25.05-.52.09-.78.02-.23.05-.45.1-.7.03-.28.07-.58.13-.88.04-.3.09-.61.15-.91.02-.2.06-.4.11-.61,4.61-25.72,24.06-47.49,51.14-53.75,36.25-8.4,72.44,14.19,80.83,50.44,8.38,36.26-14.19,72.44-50.45,80.83Z"/>
        <path class="cls-2" d="M268.8,280.75c-11.36,2.63-22.71-2.68-28.23-12.3-1.24-2.14-2.18-4.52-2.77-7.05-3.22-13.9,5.45-27.77,19.35-30.99,9.94-2.3,19.89,1.48,25.91,8.92,2.4,2.95,4.18,6.47,5.1,10.43,3.22,13.9-5.45,27.77-19.35,30.99Z"/>
        <path class="cls-2" d="M175.21,294.01c-11.36,2.63-22.71-2.68-28.23-12.3-1.24-2.14-2.18-4.52-2.77-7.05-3.22-13.9,5.45-27.77,19.35-30.99,9.94-2.3,19.89,1.48,25.91,8.92,2.4,2.95,4.18,6.47,5.1,10.43,3.22,13.9-5.45,27.77-19.35,30.99Z"/>
      </g>
      <g>
        <rect class="cls-1" x="681.9" y="96.11" width="46.02" height="15.38"/>
        <rect class="cls-1" x="697.14" y="59.31" width="15.41" height="185.15"/>
        <polygon class="cls-1" points="541.27 162.68 541.27 178.07 678.5 178.07 678.11 162.68 541.27 162.68"/>
        <path class="cls-1" d="M658.57,199.81c-10.21,17.6-29.27,29.46-51.1,29.46-32.59,0-59.02-26.37-59.02-58.9s26.42-58.88,59.02-58.88,59.02,26.37,59.02,58.88c0,2.6-.19,5.18-.52,7.69h15.53c.25-2.52.4-5.1.4-7.69,0-41.02-33.33-74.27-74.43-74.27s-74.43,33.25-74.43,74.27,33.33,74.27,74.43,74.27c27.55,0,51.59-14.94,64.45-37.14l-13.35-7.69Z"/>
        <path class="cls-1" d="M876.76,170.37c0,41.02-33.33,74.27-74.43,74.27s-74.43-33.25-74.43-74.27,33.33-74.27,74.43-74.27,74.43,33.25,74.43,74.27ZM802.31,111.48c-32.59,0-59.02,26.37-59.02,58.88s26.42,58.88,59.02,58.88,59.02-26.37,59.02-58.88-26.42-58.88-59.02-58.88Z"/>
        <path class="cls-1" d="M962.03,244.64c-41.11,0-74.43-33.25-74.43-74.27s33.33-74.27,74.43-74.27,74.43,33.25,74.43,74.27-33.32,74.27-74.43,74.27ZM1021.04,170.37c0-32.53-26.42-58.88-59.02-58.88s-59.02,26.37-59.02,58.88,26.42,58.88,59.02,58.88c32.59.01,59.02-26.36,59.02-58.88Z"/>
        <rect class="cls-1" x="887.58" y="103.8" width="15.41" height="177.64"/>
        <path class="cls-1" d="M1073.84,170.37c0-41.02,33.33-74.27,74.43-74.27s74.43,33.25,74.43,74.27-33.33,74.27-74.43,74.27-74.43-33.25-74.43-74.27ZM1148.27,229.27c32.59,0,59.02-26.37,59.02-58.88s-26.42-58.88-59.02-58.88-59.02,26.37-59.02,58.88,26.42,58.88,59.02,58.88Z"/>
        <rect class="cls-1" x="1207.29" y="103.79" width="15.41" height="140.66"/>
        <polygon class="cls-2" points="1062.91 103.8 1085.17 81.57 1062.91 59.36 1062.91 103.8"/>
        <polygon class="cls-1" points="1047.49 244.46 1062.91 244.46 1062.91 103.8 1047.49 119.04 1047.49 244.46"/>
        <path class="cls-1" d="M522.2,170.37c0,41.02-33.33,74.27-74.43,74.27s-74.43-33.25-74.43-74.27,33.33-74.27,74.43-74.27,74.43,33.25,74.43,74.27ZM447.75,111.48c-32.59,0-59.02,26.37-59.02,58.88s26.42,58.88,59.02,58.88,59.02-26.37,59.02-58.88-26.42-58.88-59.02-58.88Z"/>
        <rect class="cls-1" x="373.32" y="59.31" width="15.41" height="185.15"/>
        <path class="cls-1" d="M1447.88,127.93c-1.5-2.75-3.25-5.37-5.22-7.83-6.14-7.67-13.67-13.56-22.57-17.65-8.91-4.09-18.58-6.14-29.03-6.14-13.31,0-25.34,3.27-36.08,9.83-10.74,6.55-19.19,15.45-25.34,26.72-6.14,11.25-9.21,23.94-9.21,38.08s3.07,26.77,9.21,37.92c6.14,11.17,14.54,20.03,25.19,26.57,10.64,6.56,22.72,9.83,36.23,9.83,10.65,0,20.43-2.16,29.33-6.45,8.91-4.31,16.32-10.29,22.27-17.97,1.96-2.54,3.7-5.22,5.22-8.05,3.07-5.7,5.22-11.98,6.45-18.82v-46.68c-1.11-7.1-3.26-13.55-6.45-19.36ZM1441.9,201.95c-4.61,9.01-11.07,16.08-19.36,21.19-8.29,5.12-17.87,7.69-28.72,7.69s-20.94-2.56-29.63-7.69c-8.7-5.11-15.51-12.23-20.43-21.34-4.91-9.11-7.36-19.4-7.36-30.86s2.45-22.32,7.36-31.33c4.92-9,11.62-16.07,20.12-21.19,8.49-5.11,18.16-7.67,29.03-7.67s20.78,2.56,29.17,7.67c8.4,5.12,14.94,12.19,19.65,21.19,4.71,9.01,7.07,19.46,7.07,31.33s-2.31,22.01-6.91,31.01ZM1447.88,59.7v74.68l4,34.39-4,35.33v38.08h15.36V59.7h-15.36Z"/>
        <path class="cls-1" d="M1559.06,245.25c-13.72,0-26.06-3.27-37.01-9.83-10.96-6.55-19.61-15.4-25.95-26.57-6.35-11.16-9.52-23.7-9.52-37.62s3.17-26.82,9.52-38.08c6.34-11.26,14.94-20.22,25.8-26.87,10.85-6.65,23.03-9.98,36.55-9.98,11.06,0,20.93,2.1,29.64,6.3,8.7,4.2,15.86,10.13,21.5,17.81,5.63,7.68,9.37,16.64,11.21,26.87v46.68c-1.84,10.44-5.63,19.5-11.36,27.18-5.73,7.68-12.85,13.62-21.34,17.81-8.5,4.19-18.17,6.3-29.02,6.3ZM1561.21,230.82c16.38,0,29.48-5.48,39.31-16.43,9.83-10.95,14.74-25.44,14.74-43.46,0-12.08-2.26-22.62-6.76-31.63-4.51-9.01-10.85-16.02-19.04-21.04-8.19-5.01-17.71-7.52-28.56-7.52s-21.3,2.61-30.1,7.83c-8.8,5.22-15.72,12.34-20.73,21.34-5.02,9.01-7.52,19.35-7.52,31.02s2.5,21.7,7.52,30.71c5.01,9.01,11.98,16.12,20.88,21.34,8.91,5.22,18.99,7.83,30.25,7.83ZM1614.34,242.18v-38.08l3.69-35.32-3.69-34.4v-35.01h15.36v142.81h-15.36Z"/>
        <path class="cls-1" d="M1662.56,99.38v142.81h15.36V99.38h-15.36Z"/>
        <path class="cls-1" d="M1710.47,59.7v182.49h15.36V59.7h-15.36Z"/>
        <path class="cls-1" d="M1807.21,242.49l-63.57-143.11h16.89l54.97,127.14h-7.99l58.04-127.14h16.89l-67.26,143.11h-7.99ZM1770.05,302.68l36.85-75.24,8.29,15.05-28.26,60.2h-16.89Z"/>
        <path class="cls-1" d="M1683.05,72.7c0,2.19-.52,4.21-1.58,6.09-.51.93-1.17,1.82-1.95,2.67-.35.38-.7.71-1.07,1.03-2.19,1.88-4.84,2.8-7.99,2.8-2.8,0-5.26-.93-7.38-2.8-.36-.32-.71-.66-1.06-1.03-.79-.85-1.44-1.74-1.96-2.67-1.06-1.88-1.58-3.9-1.58-6.09,0-3.69,1.18-6.65,3.54-8.91.56-.54,1.15-1.02,1.77-1.42,1.96-1.3,4.17-1.96,6.67-1.96,2.8,0,5.22.66,7.26,1.96.64.4,1.25.89,1.81,1.42,2.35,2.25,3.53,5.22,3.53,8.91Z"/>
      </g>
    </g>
  </g>
</svg>