<?xml version="1.0" encoding="UTF-8"?>
<svg id="Layer_2" data-name="Layer 2" xmlns="http://www.w3.org/2000/svg" viewBox="0 0 303.98 294.68">
  <defs>
    <style>
      .cls-1 {
        fill: #fff;
      }

      .cls-2 {
        fill: #f6944e;
      }
    </style>
  </defs>
  <g id="Layer_1-2" data-name="Layer 1">
    <g>
      <path class="cls-2" d="M102.61,117.66c1.09-1.83,2.24-3.63,3.44-5.39-1.21,1.76-2.35,3.55-3.44,5.39ZM93.71,137.04c-.46,1.35-.89,2.72-1.28,4.1.4-1.38.83-2.74,1.28-4.1Z"/>
      <path class="cls-2" d="M91.9,195.08c.01.06.03.11.05.17h0s-.04-.17-.04-.17Z"/>
      <path class="cls-2" d="M84.32,5.25c.44.37.86.77,1.26,1.18-.4-.42-.83-.81-1.26-1.18Z"/>
      <path class="cls-2" d="M92.42,141.13c.4-1.38.82-2.74,1.28-4.1-.45,1.35-.89,2.72-1.28,4.1Z"/>
      <path class="cls-2" d="M106.04,112.27c-1.2,1.76-2.35,3.55-3.44,5.39,1.08-1.83,2.23-3.63,3.44-5.39Z"/>
      <path class="cls-2" d="M88.64,10.66c.27.53.52,1.06.74,1.63-.23-.56-.47-1.1-.74-1.63Z"/>
      <path class="cls-2" d="M89.97,14c-.16-.59-.36-1.16-.58-1.72.23.56.42,1.13.58,1.72Z"/>
      <polygon class="cls-2" points="200.73 206.59 225.97 162.02 181.35 136.89 200.73 206.59"/>
      <path class="cls-1" d="M301.37,145.39c-12.55-54.2-66.65-87.97-120.85-75.43-22.65,5.24-41.74,17.74-55.36,34.47L104.21,13.89c-.06-.3-.14-.59-.23-.89-.16-.59-.36-1.16-.58-1.71-.23-.57-.48-1.11-.74-1.63-.82-1.57-1.86-2.99-3.06-4.23-.41-.41-.83-.81-1.27-1.18-.66-.55-1.36-1.06-2.08-1.52-3.89-2.43-8.72-3.38-13.54-2.26l-20.5,4.74L13.88,16.4C4.24,18.63-1.77,28.26.47,37.9c1.11,4.83,4.08,8.73,7.97,11.17,3.89,2.43,8.7,3.37,13.52,2.26l48.33-11.18,34.1,147.35,1.52,6.58c.02.07.03.12.05.17,6.07,22.63,19.47,41.47,37.02,54.56,4.46-6.13,11.06-10.74,19.03-12.58,17.6-4.07,35.16,6.89,39.24,24.49.62,2.73.89,5.45.83,8.12,7.85.08,15.85-.76,23.85-2.61,1.83-.42,3.63-.89,5.41-1.41-.29-.9-.54-1.82-.76-2.76-1.65-7.14-.83-14.27,1.92-20.51,4-9.13,12.11-16.31,22.57-18.73,10.27-2.38,20.53.36,28.1,6.56,17.65-23.05,25.25-53.51,18.2-83.99ZM116.62,116.66c1.08-1.83,2.23-3.63,3.44-5.38-1.2,1.75-2.35,3.55-3.44,5.38ZM218.42,233.74c-35.12,8.13-70.19-12.81-79.98-47.09-.3-1.1-.6-2.23-.86-3.36-.57-2.48-1-4.95-1.29-7.42-.05-.46-.1-.92-.14-1.37-.06-.5-.1-1-.13-1.5-.03-.33-.05-.68-.07-1.01-.01-.28-.03-.55-.03-.83-.03-.17-.04-.34-.03-.52-.03-.41-.03-.85-.04-1.27-.01-.14-.01-.28,0-.41-.02-.4-.01-.79-.01-1.19,0-.23-.01-.45,0-.69.01-.38.02-.75.02-1.12.01-.15.02-.29.02-.43.01-.41.04-.82.06-1.23.02-.5.06-.98.11-1.47.02-.45.06-.91.11-1.37v-.03c.05-.44.09-.89.16-1.33.01-.25.05-.52.09-.78.02-.23.05-.45.1-.7.03-.28.07-.58.13-.88.04-.3.09-.61.15-.91.02-.2.06-.4.11-.61,4.61-25.72,24.06-47.49,51.14-53.75,36.25-8.4,72.44,14.19,80.83,50.44,8.38,36.26-14.19,72.44-50.45,80.83Z"/>
      <path class="cls-2" d="M268.8,280.75c-11.36,2.63-22.71-2.68-28.23-12.3-1.24-2.14-2.18-4.52-2.77-7.05-3.22-13.9,5.45-27.77,19.35-30.99,9.94-2.3,19.89,1.48,25.91,8.92,2.4,2.95,4.18,6.47,5.1,10.43,3.22,13.9-5.45,27.77-19.35,30.99Z"/>
      <path class="cls-2" d="M175.21,294.01c-11.36,2.63-22.71-2.68-28.23-12.3-1.24-2.14-2.18-4.52-2.77-7.05-3.22-13.9,5.45-27.77,19.35-30.99,9.94-2.3,19.89,1.48,25.91,8.92,2.4,2.95,4.18,6.47,5.1,10.43,3.22,13.9-5.45,27.77-19.35,30.99Z"/>
    </g>
  </g>
</svg>